<svg xmlns="http://www.w3.org/2000/svg" xmlns:xlink="http://www.w3.org/1999/xlink" width="89" height="30" viewBox="0 150 841.92 282.92" preserveAspectRatio="xMidYMid meet" version="1.0"><defs><g/><clipPath id="411c252562"><path d="M 651.046875 218 L 819.789062 218 L 819.789062 353 L 651.046875 353 Z M 651.046875 218 " clip-rule="nonzero"/></clipPath></defs><g clip-path="url(#411c252562)"><path fill="#000000" d="M 651.046875 288.445312 C 651.046875 287.777344 651.046875 287.066406 651.046875 286.402344 C 651.089844 285.824219 651.265625 285.46875 651.578125 284.890625 C 652.15625 283.871094 652.289062 282.628906 651.800781 281.382812 C 651.3125 280.230469 651.976562 281.027344 651.089844 280.71875 C 651.132812 279.03125 651.621094 276.632812 653.042969 275.65625 C 653.042969 277.210938 653.21875 277.609375 653.308594 278.765625 C 653.574219 278.765625 653.886719 278.765625 654.152344 278.765625 C 654.152344 274.28125 656.992188 274.902344 658.320312 273.390625 C 658.367188 273.347656 658.5 273.125 658.542969 273.082031 C 658.855469 272.726562 659.121094 272.371094 659.429688 272.015625 C 659.476562 271.972656 659.652344 271.792969 659.699219 271.707031 C 662.136719 269.042969 660.808594 270.683594 662.449219 269.394531 C 663.203125 268.820312 663.160156 268.996094 663.378906 268.109375 C 664.222656 268.464844 663.824219 267.488281 663.957031 268.953125 C 665.820312 267.710938 664.710938 268.507812 666.175781 268.554688 C 666.839844 268.554688 667.460938 268.375 667.949219 267.886719 C 670.570312 265.179688 670.789062 266.734375 672.164062 265.621094 C 673.097656 264.910156 672.253906 264.867188 673.273438 264.203125 C 674.429688 263.445312 673.808594 264.203125 675.183594 264.113281 C 676.292969 264.023438 675.273438 264.15625 676.203125 263.800781 C 681.21875 261.894531 682.238281 261.9375 683.925781 257.453125 C 683.96875 257.320312 684.011719 257.1875 684.058594 257.097656 C 684.367188 256.34375 684.191406 256.296875 684.902344 255.675781 C 684.988281 255.589844 685.121094 255.5 685.210938 255.457031 C 685.253906 255.410156 685.34375 255.367188 685.386719 255.320312 C 685.523438 255.1875 685.699219 255.054688 685.832031 254.921875 C 686.097656 254.65625 685.832031 254.964844 686.277344 254.523438 C 686.320312 254.476562 686.496094 254.300781 686.542969 254.210938 C 686.898438 253.769531 686.765625 254.125 686.941406 253.5 C 685.566406 253.769531 686.542969 253.722656 686.097656 253.5 C 686.097656 251.992188 685.566406 251.546875 685.65625 250.703125 C 685.699219 249.992188 686.277344 249.0625 686.71875 248.441406 C 687.164062 247.953125 687.652344 247.464844 688.09375 247.019531 C 688.628906 246.21875 688.539062 245.644531 689.738281 245.332031 C 689.558594 247.242188 689.605469 246.085938 690.578125 247.863281 C 691.554688 249.640625 691.15625 249.503906 692 250.128906 C 692.355469 248.660156 692.132812 249.640625 692 248.171875 C 692.886719 248.351562 692.445312 248.441406 693.109375 248.171875 C 692.445312 247.195312 691.6875 247.0625 691.421875 246.488281 C 691.023438 245.644531 691.6875 246.132812 691.6875 244.222656 C 692.175781 244.222656 692.621094 244.222656 693.109375 244.222656 C 693.464844 245.332031 692.796875 244.355469 694.128906 244.621094 C 694.527344 244.753906 694.929688 244.886719 695.371094 245.066406 C 695.417969 243.867188 695.328125 244.089844 695.949219 243.378906 C 695.59375 242.847656 695.195312 242.402344 695.285156 241.734375 C 695.371094 240.890625 695.90625 240.714844 696.304688 240.316406 C 696.4375 240.183594 696.613281 240.046875 696.746094 239.914062 C 696.792969 239.871094 696.925781 239.738281 696.96875 239.648438 C 697.015625 239.605469 697.058594 239.558594 697.058594 239.515625 C 697.722656 238.671875 697.8125 238.363281 698.746094 238.273438 C 699.1875 237.164062 698.878906 238.40625 698.476562 236.851562 C 698.832031 236.585938 698.921875 236.496094 699.320312 236.273438 C 699.453125 236.230469 699.542969 236.140625 699.675781 236.097656 C 700.875 235.296875 700.03125 235.742188 700.742188 234.320312 C 701.316406 234.808594 701.851562 235.253906 702.425781 235.742188 C 702.515625 234.765625 702.648438 234.722656 703.003906 234.054688 C 701.050781 233.523438 703.359375 231.703125 703.582031 233.789062 C 704.378906 233.253906 703.9375 233.210938 705 232.945312 C 705.179688 233.34375 705.3125 232.457031 705 233.789062 C 705.933594 233.078125 705.621094 232.855469 706.109375 231.835938 C 708.195312 231.878906 706.289062 232.144531 708.152344 232.457031 C 710.589844 232.902344 710.503906 235.429688 712.855469 236.054688 C 712.722656 237.738281 712.320312 236.363281 712.277344 238.316406 C 712.410156 238.09375 712.589844 237.875 712.722656 237.652344 C 712.765625 237.605469 712.808594 237.5625 712.855469 237.519531 C 713.386719 236.984375 713.386719 238.363281 713.429688 236.320312 C 714.894531 236.320312 715.382812 236.496094 716.582031 236.808594 C 717.511719 237.03125 716.449219 236.675781 719.023438 236.894531 C 719.023438 236.40625 719.066406 236.320312 718.933594 235.875 C 718.710938 235.296875 718.488281 235.253906 717.644531 234.632812 C 718.265625 232.058594 718.890625 233.167969 719.421875 231.65625 C 719.910156 230.238281 719.242188 230.238281 720.664062 229.925781 C 720.972656 229.835938 721.285156 229.703125 721.59375 229.613281 C 721.242188 228.238281 721.019531 229.394531 721.019531 227.351562 C 722.304688 227.261719 721.773438 227.261719 722.351562 226.417969 C 722.972656 225.53125 722.972656 225.53125 722.972656 224.820312 C 723.546875 224.820312 723.726562 224.910156 724.257812 224.6875 C 725.632812 224.152344 724.347656 224.554688 725.1875 223.933594 C 725.410156 223.796875 725.675781 223.664062 725.898438 223.53125 C 726.164062 223.398438 726.433594 223.265625 726.609375 223.132812 C 727.054688 223.976562 726.652344 224.109375 727.71875 224.242188 C 728.5625 224.152344 729.40625 224.066406 730.246094 223.933594 C 730.292969 223.933594 730.382812 223.886719 730.425781 223.886719 C 731.136719 223.621094 731.800781 223.398438 732.511719 223.132812 C 732.332031 221.046875 732.246094 221.667969 731.933594 220.601562 C 730.601562 220.601562 730.515625 220.957031 729.714844 220.601562 C 729.671875 220.558594 729.582031 220.511719 729.539062 220.511719 C 729.492188 220.46875 729.40625 220.425781 729.359375 220.425781 C 728.605469 220.023438 729.625 220.335938 728.5625 220.070312 C 728.5625 219.800781 728.5625 219.492188 728.5625 219.226562 C 729.757812 219.09375 729.183594 219.046875 729.359375 218.960938 C 729.894531 218.914062 730.425781 218.871094 730.957031 218.824219 C 731.402344 218.914062 731.089844 218.78125 731.535156 219.046875 C 732.421875 219.625 732.597656 219.9375 732.777344 220.601562 C 733.574219 220.070312 733.132812 220.023438 734.195312 219.757812 C 734.328125 219.9375 734.863281 220.867188 734.949219 220.957031 C 736.328125 222.511719 737.65625 221.535156 738.679688 221.445312 C 738.679688 221.625 738.679688 221.800781 738.679688 222.023438 C 739.65625 222.246094 740.230469 222.6875 740.941406 223.132812 C 742.226562 222.777344 741.207031 222.6875 742.628906 222.554688 C 742.894531 223.53125 743.335938 223.488281 744.046875 223.976562 C 745.113281 223.042969 745.777344 223 747.6875 222.554688 C 747.285156 223.664062 747.640625 222.601562 746.84375 223.664062 C 747.597656 223.488281 747.6875 223.398438 748.261719 223.089844 C 748.261719 224.507812 748.261719 223.578125 748.527344 223.933594 C 749.0625 223.132812 749.902344 222.734375 750.792969 222.246094 C 750.792969 224.285156 750.523438 223.222656 751.722656 223.84375 C 752.078125 224.066406 752.433594 224.285156 752.742188 224.507812 C 752.121094 225.441406 751.324219 225.753906 751.011719 226.90625 C 750.613281 228.371094 751.589844 226.773438 749.949219 229.257812 C 749.0625 228.949219 749.460938 228.550781 747.996094 229.257812 C 747.773438 230.101562 747.863281 229.703125 747.417969 230.371094 C 748.574219 230.859375 747.375 230.148438 748.527344 230.636719 C 748.351562 230.992188 748.085938 231.613281 747.953125 232.011719 C 747.90625 232.058594 747.90625 232.144531 747.863281 232.234375 C 747.773438 232.457031 747.6875 232.632812 747.597656 232.855469 C 747.375 233.300781 747.597656 232.945312 747.285156 233.390625 C 746.753906 234.097656 746.042969 235.253906 745.421875 235.476562 C 745.46875 237.03125 745.246094 236.453125 746.398438 237.03125 C 746.796875 237.296875 747.199219 237.519531 747.597656 237.785156 C 747.996094 238.09375 748.617188 238.449219 748.882812 238.714844 C 749.238281 239.117188 749.59375 239.515625 749.949219 239.914062 C 750.039062 240.003906 751.234375 240.804688 751.28125 240.847656 C 751.855469 241.027344 752.433594 241.203125 753.011719 241.378906 C 756.203125 242.667969 756.691406 244.488281 758.070312 245.066406 C 759.398438 245.597656 761.21875 245.464844 761.882812 246.839844 C 762.105469 247.332031 761.882812 247.109375 762.195312 247.640625 C 762.460938 248.171875 762.90625 248.351562 763.4375 248.660156 C 764.148438 249.015625 765.566406 249.992188 766.277344 250.082031 C 767.34375 250.214844 769.074219 249.503906 769.472656 248.839844 C 769.828125 248.261719 770.003906 247.285156 770.9375 245.777344 C 772.222656 243.6875 771.867188 241.648438 772.84375 239.515625 C 773.777344 237.519531 772.976562 238.050781 772.933594 235.917969 C 772.886719 235.121094 773.199219 234.898438 773.199219 234.320312 C 773.199219 233.609375 773.109375 231.613281 773.332031 230.148438 C 773.597656 228.460938 774.042969 225.042969 774.972656 223.664062 C 775.683594 222.554688 775.949219 221.488281 776.082031 220.292969 C 776.214844 218.605469 777.8125 217.226562 778.921875 219.179688 C 779.144531 219.582031 779.320312 219.980469 779.457031 220.378906 C 780.253906 223.089844 781.808594 226.375 782.382812 228.636719 C 782.828125 230.371094 782.472656 232.902344 783.050781 234.765625 C 783.539062 236.363281 784.027344 236.320312 784.957031 235.964844 C 786.644531 235.253906 787.042969 236.007812 787.972656 237.164062 C 788.285156 237.5625 788.640625 237.828125 788.949219 238.007812 C 790.238281 238.851562 790.328125 239.960938 790.238281 241.378906 C 790.191406 241.734375 790.191406 242.089844 790.191406 242.445312 C 790.546875 243.867188 790.503906 245.199219 790.636719 246.21875 C 790.859375 247.863281 793.519531 249.0625 793.121094 252.703125 C 792.988281 253.988281 791.789062 255.5 793.742188 256.03125 C 793.742188 258.386719 793.34375 258.785156 795.652344 259.71875 C 796.539062 259.984375 796.539062 260.160156 797.160156 260.472656 C 797.78125 260.78125 798.3125 260.429688 798.578125 261.003906 C 798.890625 261.671875 798.84375 262.601562 799.378906 262.46875 C 800.085938 262.25 800.265625 263.003906 801.109375 263.582031 C 801.953125 264.289062 801.820312 264.246094 802.792969 264.691406 C 806.433594 266.289062 802.351562 266.464844 803.992188 268.242188 C 806.433594 270.949219 804.570312 268.507812 805.855469 271.171875 C 806.476562 272.460938 806.167969 276.234375 808.164062 275.035156 C 808.828125 274.636719 808.472656 275.878906 809.40625 276.1875 C 810.605469 276.542969 811.359375 275.878906 811.445312 277.832031 C 811.535156 279.164062 810.824219 280.007812 811.3125 281.515625 C 811.625 282.449219 813.175781 284.3125 814.066406 284.582031 C 815.75 285.113281 815.261719 286.757812 816.148438 287.867188 C 817.527344 289.507812 817.214844 290.085938 818.101562 291.019531 C 818.769531 291.730469 818.8125 290.886719 818.8125 292.484375 C 818.8125 294.261719 818.636719 293.015625 819.167969 294.125 C 819.789062 295.503906 819.566406 294.394531 819.167969 295.8125 C 818.722656 297.367188 819.035156 298.035156 818.855469 299.5 C 818.457031 303.007812 819.035156 301.628906 819.433594 305.09375 C 819.609375 306.691406 819.523438 307.890625 818.722656 309.132812 C 818.324219 309.800781 818.101562 310.199219 817.835938 311.085938 C 817.304688 312.820312 815.484375 315.527344 815.441406 316.992188 C 815.441406 319.433594 813.796875 320.855469 812.777344 322.320312 C 812.335938 322.984375 812.46875 323.339844 812.203125 323.960938 C 812.15625 324.007812 812.15625 324.097656 812.113281 324.140625 C 811.535156 324.585938 810.914062 325.027344 810.335938 325.472656 C 810.292969 325.515625 810.203125 325.5625 810.160156 325.5625 C 809.628906 325.871094 809.09375 326.183594 808.5625 326.492188 C 806.078125 329.203125 806.789062 330.132812 805.101562 331.464844 C 804.257812 332.132812 803.992188 333.066406 803.59375 334.175781 C 803.550781 334.441406 803.503906 334.664062 803.460938 334.929688 C 803.460938 334.972656 803.460938 335.0625 803.460938 335.105469 C 803.371094 335.640625 803.992188 335.152344 803.148438 335.863281 C 802.484375 336.394531 801.332031 336.4375 800.222656 339.503906 C 799.734375 340.878906 799.199219 342.210938 798.710938 343.585938 C 798.535156 344.476562 798.980469 344.742188 798.578125 345.71875 C 798.359375 345.984375 798.179688 346.25 797.957031 346.515625 C 796.316406 347.804688 794.542969 347.140625 792.277344 347.050781 C 788.816406 346.917969 787.839844 350.246094 784.558594 350.246094 C 784.914062 351.089844 784.601562 351.976562 783.714844 352.199219 C 783.625 351.757812 783.539062 351.3125 783.226562 351.046875 C 782.917969 350.914062 782.648438 350.824219 782.339844 350.691406 C 782.296875 350.648438 782.027344 350.335938 781.941406 350.292969 C 781.496094 349.890625 781.050781 349.492188 780.609375 349.09375 C 780.785156 347.582031 780.609375 348.871094 780.964844 348.070312 C 781.007812 347.9375 781.097656 347.847656 781.140625 347.714844 C 780.03125 347.847656 779.988281 348.738281 778.613281 348.828125 C 777.859375 345.941406 774.839844 349.804688 773.289062 349.9375 C 773.023438 349.316406 770.714844 347.984375 770.183594 347.714844 C 769.472656 347.359375 769.871094 347.582031 769.117188 347.359375 C 769.027344 347.316406 768.984375 347.316406 768.894531 347.273438 C 768.671875 347.183594 768.496094 347.09375 768.273438 347.050781 C 767.386719 346.785156 767.386719 347.09375 766.542969 347.40625 C 766.277344 347.09375 766.011719 346.785156 765.746094 346.515625 C 764.769531 345.363281 763.480469 345.808594 762.59375 344.875 C 762.195312 344.207031 761.839844 343.585938 761.441406 342.921875 C 761.042969 342.386719 760.464844 341.988281 760.242188 341.144531 C 760.285156 340.699219 760.285156 340.210938 760.332031 339.769531 C 760.332031 339.722656 760.375 339.636719 760.421875 339.589844 C 761.21875 337.058594 759.355469 335.105469 757.582031 333.597656 C 757.535156 333.554688 757.449219 333.554688 757.449219 333.464844 C 757.402344 333.375 757.359375 333.375 757.3125 333.332031 C 756.160156 333.640625 755.761719 333.90625 754.519531 333.90625 C 754.695312 332 757.3125 331.953125 755.71875 328.800781 C 755.671875 328.757812 755.628906 328.667969 755.628906 328.625 C 755.582031 328.492188 755.496094 328.359375 755.449219 328.269531 C 755.40625 328.226562 755.40625 328.136719 755.363281 328.09375 C 755.183594 327.78125 755.007812 327.515625 754.828125 327.203125 C 754.472656 328.3125 754.074219 329.46875 753.71875 330.578125 C 753.097656 332 752.921875 331.109375 751.722656 331.421875 C 751.011719 331.597656 750.835938 331.910156 749.769531 332 C 749.859375 330.800781 750.082031 331.066406 750.347656 330.046875 C 751.902344 330.046875 752.34375 330.402344 752.257812 328.757812 C 752.210938 327.335938 752.609375 325.648438 753.675781 324.363281 C 754.339844 323.5625 754.296875 323.695312 753.71875 322.453125 C 754.121094 322.007812 753.988281 321.964844 754.828125 321.875 C 754.652344 321.609375 754.609375 321.519531 754.386719 321.210938 C 753.898438 320.542969 754.339844 321.164062 753.988281 320.765625 C 753.585938 321.832031 754.074219 320.808594 753.363281 321.566406 C 752.699219 322.230469 752.609375 322.808594 752.121094 323.695312 C 751.367188 325.160156 749.417969 325.117188 748.394531 326.449219 C 746.84375 328.445312 746.53125 328.667969 746.753906 329.511719 C 746.84375 329.867188 746.886719 330.265625 746.976562 330.621094 C 746.488281 330.488281 746.398438 330.402344 746.355469 330.402344 C 745.820312 330.222656 746.308594 330.355469 745.820312 330.265625 C 744.3125 329.914062 744.710938 328.800781 743.027344 328.667969 C 743.25 328.402344 743.515625 328.179688 743.738281 327.914062 C 743.78125 327.914062 743.871094 327.871094 743.871094 327.871094 C 743.871094 327.871094 744.003906 327.914062 744.003906 327.824219 C 744.003906 327.78125 744.089844 327.824219 744.136719 327.824219 C 744.046875 326.761719 743.824219 325.828125 743.25 325.117188 C 742.183594 323.828125 742.316406 323.339844 741.738281 322.628906 C 741.03125 321.742188 740.453125 322.410156 739.789062 321.789062 C 739.566406 321.253906 739.386719 320.722656 739.167969 320.1875 C 739.34375 319.566406 739.65625 319.789062 739.875 319.167969 C 739.078125 318.769531 739.078125 318.945312 738.191406 319.167969 C 738.324219 317.835938 738.546875 318.636719 738.191406 317.746094 C 736.769531 317.390625 735.925781 317.65625 734.773438 316.949219 C 732.777344 315.75 733.664062 316.460938 732.023438 316.902344 C 731.089844 316.28125 728.605469 314.285156 727.363281 314.503906 C 726.078125 314.726562 725.898438 314.90625 724.125 314.949219 C 718.976562 314.949219 719.332031 315.925781 716.003906 317.257812 C 714.273438 317.925781 712.632812 318.902344 710.636719 318.902344 C 705.53125 318.988281 707.261719 319.433594 702.828125 322.054688 C 701.71875 322.675781 701.273438 322.320312 700.5625 323.164062 C 700.164062 323.652344 700.164062 324.007812 700.03125 324.585938 C 699.144531 328.402344 697.058594 327.558594 695.859375 327.515625 C 694.085938 327.46875 693.730469 327.824219 693.507812 328.445312 C 691.734375 328.3125 693.464844 328.535156 692.488281 328.046875 C 692.445312 328.046875 692.398438 327.957031 692.355469 327.957031 C 692.222656 327.914062 692.089844 327.871094 691.957031 327.871094 C 690.933594 327.871094 692.222656 327.957031 691.203125 328.046875 C 690.847656 328.09375 690.800781 328.003906 690.535156 328.003906 C 689.472656 328.179688 688.40625 328.3125 687.339844 328.492188 C 685.875 328.980469 683.65625 328.933594 683.257812 330.488281 C 683.257812 330.578125 683.214844 331.023438 683.214844 331.023438 C 682.949219 332 681.925781 331.910156 681.261719 332 C 680.996094 332.175781 680.730469 332.308594 680.417969 332.488281 C 680.375 332.53125 680.195312 332.710938 680.152344 332.796875 C 680.019531 332.929688 679.886719 333.109375 679.753906 333.242188 C 679.710938 333.285156 679.664062 333.332031 679.621094 333.375 C 679.222656 333.863281 679 334.53125 677.980469 335.105469 C 676.914062 335.726562 674.871094 335.460938 673.675781 335.683594 C 669.769531 336.351562 668.972656 333.375 666.621094 333.464844 C 664.800781 333.507812 664.84375 331.644531 664.84375 329.601562 C 665.511719 329.734375 665.6875 329.867188 666.53125 329.867188 C 666.753906 328.890625 667.195312 328.359375 666.929688 327.25 C 666.621094 326.050781 666.265625 326.226562 666.441406 324.984375 C 666.441406 324.273438 666.398438 323.5625 666.398438 322.851562 C 666.042969 319.300781 662.449219 318.058594 661.515625 312.0625 C 661.339844 310.863281 661.207031 310.421875 660.539062 309.667969 C 660.230469 309.3125 659.964844 309.132812 659.699219 308.824219 C 659.121094 308.113281 659.566406 308.691406 659.210938 307.890625 C 658.632812 306.601562 657.035156 305.757812 656.726562 304.207031 C 656.015625 300.699219 653.175781 299.632812 651.355469 296.921875 C 652.199219 296.570312 651.800781 297.546875 651.933594 296.082031 C 652.777344 296.300781 652.375 296.214844 653.042969 296.65625 C 652.863281 294.703125 652.199219 296.433594 652.199219 293.859375 C 653.886719 294.304688 654.90625 295.8125 655.304688 297.5 C 655.484375 297.5 655.660156 297.5 655.882812 297.5 C 655.882812 294.171875 655.4375 294.925781 654.328125 293.460938 C 654.019531 293.015625 653.972656 292.882812 653.617188 292.484375 C 653.574219 292.441406 653.53125 292.394531 653.484375 292.351562 C 652.242188 290.929688 652.820312 290.929688 652.023438 289.910156 C 651.265625 288.886719 651.089844 289.109375 651.046875 288.445312 " fill-opacity="1" fill-rule="evenodd"/></g><path fill="#000000" d="M 775.816406 359.882812 C 775.816406 361.125 776.171875 362.367188 776.617188 363.300781 C 776.96875 364.054688 777.148438 363.789062 777.148438 364.898438 C 777.105469 366.941406 776.882812 367.519531 777.726562 369.207031 C 778.167969 370.136719 779.101562 371.160156 779.1875 372.269531 C 781.1875 372.269531 780.875 372.179688 781.140625 372.847656 C 783.003906 372.800781 781.808594 372.445312 782.828125 372.269531 C 782.871094 372.269531 784.734375 372.710938 784.203125 370.316406 C 785.621094 370.671875 784.957031 371.425781 785.84375 371.335938 C 786.597656 371.246094 786.242188 370.625 786.332031 369.78125 C 786.421875 368.761719 785.976562 369.515625 787.308594 368.894531 L 787.042969 367.207031 C 787.042969 365.253906 787.488281 367.207031 788.152344 367.472656 L 788.996094 361.523438 C 789.082031 361.082031 789.570312 361.300781 788.460938 359.613281 C 787.175781 359.75 787.929688 359.792969 787.621094 359.882812 L 783.890625 360.414062 C 783.09375 360.59375 782.515625 360.902344 782.027344 360.859375 C 780.566406 360.769531 779.808594 359.039062 777.769531 358.636719 C 777.28125 358.550781 777.769531 358.726562 777.058594 358.417969 C 776.082031 357.972656 777.28125 358.28125 776.082031 357.972656 C 776.082031 359.214844 775.816406 358.859375 775.816406 359.882812 M 784.824219 369.472656 L 784.914062 369.558594 C 784.914062 369.558594 784.78125 369.472656 784.824219 369.472656 Z M 784.824219 369.472656 " fill-opacity="1" fill-rule="evenodd"/><g fill="#004aad" fill-opacity="1"><g transform="translate(98.452015, 329.916403)"><g><path d="M 43.90625 0.953125 C 32.71875 0.953125 23.535156 -1.703125 16.359375 -7.015625 C 9.179688 -12.335938 5.316406 -19.953125 4.765625 -29.859375 L 33.265625 -29.859375 C 33.535156 -26.492188 34.535156 -24.035156 36.265625 -22.484375 C 37.992188 -20.941406 40.222656 -20.171875 42.953125 -20.171875 C 45.398438 -20.171875 47.421875 -20.785156 49.015625 -22.015625 C 50.609375 -23.242188 51.40625 -24.945312 51.40625 -27.125 C 51.40625 -29.945312 50.085938 -32.128906 47.453125 -33.671875 C 44.816406 -35.222656 40.539062 -36.953125 34.625 -38.859375 C 28.351562 -40.953125 23.285156 -42.972656 19.421875 -44.921875 C 15.566406 -46.878906 12.207031 -49.742188 9.34375 -53.515625 C 6.476562 -57.285156 5.046875 -62.21875 5.046875 -68.3125 C 5.046875 -74.488281 6.585938 -79.78125 9.671875 -84.1875 C 12.765625 -88.601562 17.035156 -91.945312 22.484375 -94.21875 C 27.941406 -96.488281 34.128906 -97.625 41.046875 -97.625 C 52.222656 -97.625 61.148438 -95.007812 67.828125 -89.78125 C 74.515625 -84.550781 78.082031 -77.210938 78.53125 -67.765625 L 49.5 -67.765625 C 49.40625 -70.671875 48.515625 -72.847656 46.828125 -74.296875 C 45.148438 -75.753906 42.992188 -76.484375 40.359375 -76.484375 C 38.359375 -76.484375 36.722656 -75.890625 35.453125 -74.703125 C 34.179688 -73.523438 33.546875 -71.847656 33.546875 -69.671875 C 33.546875 -67.847656 34.25 -66.273438 35.65625 -64.953125 C 37.0625 -63.640625 38.804688 -62.503906 40.890625 -61.546875 C 42.984375 -60.597656 46.078125 -59.398438 50.171875 -57.953125 C 56.265625 -55.859375 61.285156 -53.785156 65.234375 -51.734375 C 69.191406 -49.691406 72.601562 -46.828125 75.46875 -43.140625 C 78.332031 -39.460938 79.765625 -34.804688 79.765625 -29.171875 C 79.765625 -23.453125 78.332031 -18.316406 75.46875 -13.765625 C 72.601562 -9.222656 68.46875 -5.632812 63.0625 -3 C 57.65625 -0.363281 51.269531 0.953125 43.90625 0.953125 Z M 43.90625 0.953125 "/></g></g></g><g fill="#004aad" fill-opacity="1"><g transform="translate(182.985743, 329.916403)"><g><path d="M 68.4375 -15.671875 L 34.359375 -15.671875 L 29.171875 0 L 1.09375 0 L 36.125 -96.125 L 66.9375 -96.125 L 101.84375 0 L 73.625 0 Z M 61.765625 -36.125 L 51.40625 -67.21875 L 41.171875 -36.125 Z M 61.765625 -36.125 "/></g></g></g><g fill="#004aad" fill-opacity="1"><g transform="translate(285.925994, 329.916403)"><g><path d="M 119.84375 -96.125 L 119.84375 0 L 93.125 0 L 93.125 -53.03125 L 74.984375 0 L 52.625 0 L 34.359375 -53.453125 L 34.359375 0 L 7.640625 0 L 7.640625 -96.125 L 39.953125 -96.125 L 64.078125 -33.671875 L 87.671875 -96.125 Z M 119.84375 -96.125 "/></g></g></g><g fill="#004aad" fill-opacity="1"><g transform="translate(413.40829, 329.916403)"><g><path d="M 119.84375 -96.125 L 119.84375 0 L 93.125 0 L 93.125 -53.03125 L 74.984375 0 L 52.625 0 L 34.359375 -53.453125 L 34.359375 0 L 7.640625 0 L 7.640625 -96.125 L 39.953125 -96.125 L 64.078125 -33.671875 L 87.671875 -96.125 Z M 119.84375 -96.125 "/></g></g></g><g fill="#004aad" fill-opacity="1"><g transform="translate(540.890585, 329.916403)"><g><path d="M 95.03125 -96.125 L 61.21875 -30.546875 L 61.21875 0 L 34.359375 0 L 34.359375 -30.546875 L 0.546875 -96.125 L 31.09375 -96.125 L 48 -59.03125 L 64.90625 -96.125 Z M 95.03125 -96.125 "/></g></g></g><g fill="#004aad" fill-opacity="1"><g transform="translate(288.432986, 382.468744)"><g><path d="M 15.125 0 L 9.46875 -9.71875 L 5.71875 -9.71875 L 5.71875 0 L 2.625 0 L 2.625 -23.75 L 10.296875 -23.75 C 12.085938 -23.75 13.601562 -23.441406 14.84375 -22.828125 C 16.082031 -22.210938 17.003906 -21.382812 17.609375 -20.34375 C 18.222656 -19.300781 18.53125 -18.109375 18.53125 -16.765625 C 18.53125 -15.128906 18.054688 -13.6875 17.109375 -12.4375 C 16.171875 -11.1875 14.757812 -10.359375 12.875 -9.953125 L 18.84375 0 Z M 5.71875 -12.203125 L 10.296875 -12.203125 C 11.972656 -12.203125 13.226562 -12.613281 14.0625 -13.4375 C 14.90625 -14.269531 15.328125 -15.378906 15.328125 -16.765625 C 15.328125 -18.171875 14.910156 -19.257812 14.078125 -20.03125 C 13.253906 -20.8125 11.992188 -21.203125 10.296875 -21.203125 L 5.71875 -21.203125 Z M 5.71875 -12.203125 "/></g></g></g><g fill="#004aad" fill-opacity="1"><g transform="translate(320.264438, 382.468744)"><g><path d="M 13.390625 0.234375 C 11.191406 0.234375 9.179688 -0.28125 7.359375 -1.3125 C 5.546875 -2.34375 4.109375 -3.785156 3.046875 -5.640625 C 1.992188 -7.492188 1.46875 -9.578125 1.46875 -11.890625 C 1.46875 -14.210938 1.992188 -16.296875 3.046875 -18.140625 C 4.109375 -19.992188 5.546875 -21.4375 7.359375 -22.46875 C 9.179688 -23.507812 11.191406 -24.03125 13.390625 -24.03125 C 15.617188 -24.03125 17.640625 -23.507812 19.453125 -22.46875 C 21.273438 -21.4375 22.707031 -20 23.75 -18.15625 C 24.789062 -16.320312 25.3125 -14.234375 25.3125 -11.890625 C 25.3125 -9.554688 24.789062 -7.46875 23.75 -5.625 C 22.707031 -3.78125 21.273438 -2.34375 19.453125 -1.3125 C 17.640625 -0.28125 15.617188 0.234375 13.390625 0.234375 Z M 13.390625 -2.453125 C 15.046875 -2.453125 16.539062 -2.835938 17.875 -3.609375 C 19.207031 -4.378906 20.253906 -5.476562 21.015625 -6.90625 C 21.773438 -8.34375 22.15625 -10.003906 22.15625 -11.890625 C 22.15625 -13.796875 21.773438 -15.457031 21.015625 -16.875 C 20.253906 -18.300781 19.210938 -19.398438 17.890625 -20.171875 C 16.578125 -20.941406 15.078125 -21.328125 13.390625 -21.328125 C 11.710938 -21.328125 10.210938 -20.941406 8.890625 -20.171875 C 7.578125 -19.398438 6.539062 -18.300781 5.78125 -16.875 C 5.019531 -15.457031 4.640625 -13.796875 4.640625 -11.890625 C 4.640625 -10.003906 5.019531 -8.34375 5.78125 -6.90625 C 6.539062 -5.476562 7.582031 -4.378906 8.90625 -3.609375 C 10.238281 -2.835938 11.734375 -2.453125 13.390625 -2.453125 Z M 13.390625 -2.453125 "/></g></g></g><g fill="#004aad" fill-opacity="1"><g transform="translate(358.161422, 382.468744)"><g><path d="M 14.515625 -12.234375 C 15.378906 -12.097656 16.164062 -11.742188 16.875 -11.171875 C 17.59375 -10.609375 18.160156 -9.90625 18.578125 -9.0625 C 19.003906 -8.21875 19.21875 -7.320312 19.21875 -6.375 C 19.21875 -5.164062 18.910156 -4.078125 18.296875 -3.109375 C 17.679688 -2.148438 16.789062 -1.390625 15.625 -0.828125 C 14.457031 -0.273438 13.078125 0 11.484375 0 L 2.625 0 L 2.625 -23.75 L 11.140625 -23.75 C 12.753906 -23.75 14.128906 -23.484375 15.265625 -22.953125 C 16.398438 -22.421875 17.25 -21.695312 17.8125 -20.78125 C 18.382812 -19.875 18.671875 -18.851562 18.671875 -17.71875 C 18.671875 -16.3125 18.289062 -15.144531 17.53125 -14.21875 C 16.769531 -13.300781 15.765625 -12.640625 14.515625 -12.234375 Z M 5.71875 -13.5 L 10.9375 -13.5 C 12.394531 -13.5 13.519531 -13.835938 14.3125 -14.515625 C 15.101562 -15.203125 15.5 -16.144531 15.5 -17.34375 C 15.5 -18.550781 15.101562 -19.492188 14.3125 -20.171875 C 13.519531 -20.859375 12.375 -21.203125 10.875 -21.203125 L 5.71875 -21.203125 Z M 11.21875 -2.5625 C 12.757812 -2.5625 13.960938 -2.921875 14.828125 -3.640625 C 15.691406 -4.367188 16.125 -5.378906 16.125 -6.671875 C 16.125 -7.992188 15.664062 -9.035156 14.75 -9.796875 C 13.84375 -10.554688 12.628906 -10.9375 11.109375 -10.9375 L 5.71875 -10.9375 L 5.71875 -2.5625 Z M 11.21875 -2.5625 "/></g></g></g><g fill="#004aad" fill-opacity="1"><g transform="translate(390.163238, 382.468744)"><g><path d="M 13.390625 0.234375 C 11.191406 0.234375 9.179688 -0.28125 7.359375 -1.3125 C 5.546875 -2.34375 4.109375 -3.785156 3.046875 -5.640625 C 1.992188 -7.492188 1.46875 -9.578125 1.46875 -11.890625 C 1.46875 -14.210938 1.992188 -16.296875 3.046875 -18.140625 C 4.109375 -19.992188 5.546875 -21.4375 7.359375 -22.46875 C 9.179688 -23.507812 11.191406 -24.03125 13.390625 -24.03125 C 15.617188 -24.03125 17.640625 -23.507812 19.453125 -22.46875 C 21.273438 -21.4375 22.707031 -20 23.75 -18.15625 C 24.789062 -16.320312 25.3125 -14.234375 25.3125 -11.890625 C 25.3125 -9.554688 24.789062 -7.46875 23.75 -5.625 C 22.707031 -3.78125 21.273438 -2.34375 19.453125 -1.3125 C 17.640625 -0.28125 15.617188 0.234375 13.390625 0.234375 Z M 13.390625 -2.453125 C 15.046875 -2.453125 16.539062 -2.835938 17.875 -3.609375 C 19.207031 -4.378906 20.253906 -5.476562 21.015625 -6.90625 C 21.773438 -8.34375 22.15625 -10.003906 22.15625 -11.890625 C 22.15625 -13.796875 21.773438 -15.457031 21.015625 -16.875 C 20.253906 -18.300781 19.210938 -19.398438 17.890625 -20.171875 C 16.578125 -20.941406 15.078125 -21.328125 13.390625 -21.328125 C 11.710938 -21.328125 10.210938 -20.941406 8.890625 -20.171875 C 7.578125 -19.398438 6.539062 -18.300781 5.78125 -16.875 C 5.019531 -15.457031 4.640625 -13.796875 4.640625 -11.890625 C 4.640625 -10.003906 5.019531 -8.34375 5.78125 -6.90625 C 6.539062 -5.476562 7.582031 -4.378906 8.90625 -3.609375 C 10.238281 -2.835938 11.734375 -2.453125 13.390625 -2.453125 Z M 13.390625 -2.453125 "/></g></g></g><g fill="#004aad" fill-opacity="1"><g transform="translate(428.060224, 382.468744)"><g><path d="M 17.25 -23.75 L 17.25 -21.234375 L 10.765625 -21.234375 L 10.765625 0 L 7.671875 0 L 7.671875 -21.234375 L 1.15625 -21.234375 L 1.15625 -23.75 Z M 17.25 -23.75 "/></g></g></g></svg>