<svg xmlns="http://www.w3.org/2000/svg" xmlns:xlink="http://www.w3.org/1999/xlink" width="89" height="30" viewBox="0 150 841.92 282.92" preserveAspectRatio="xMidYMid meet" version="1.0"><defs><g/><clipPath id="c603b1a908"><path d="M 651.046875 218 L 819 218 L 819 352 L 651.046875 352 Z M 651.046875 218 " clip-rule="nonzero"/></clipPath></defs><g clip-path="url(#c603b1a908)"><path fill="#ffffff" d="M 651.046875 288.078125 C 651.046875 287.414062 651.046875 286.707031 651.046875 286.046875 C 651.089844 285.472656 651.265625 285.117188 651.574219 284.542969 C 652.148438 283.527344 652.28125 282.292969 651.796875 281.054688 C 651.308594 279.90625 651.972656 280.703125 651.089844 280.390625 C 651.132812 278.714844 651.621094 276.328125 653.03125 275.355469 C 653.03125 276.902344 653.210938 277.300781 653.296875 278.449219 C 653.5625 278.449219 653.871094 278.449219 654.136719 278.449219 C 654.136719 273.988281 656.964844 274.605469 658.289062 273.105469 C 658.332031 273.058594 658.464844 272.839844 658.511719 272.792969 C 658.820312 272.441406 659.085938 272.085938 659.394531 271.734375 C 659.4375 271.691406 659.613281 271.511719 659.660156 271.425781 C 662.089844 268.773438 660.761719 270.410156 662.398438 269.128906 C 663.148438 268.554688 663.105469 268.730469 663.324219 267.847656 C 664.164062 268.199219 663.765625 267.230469 663.898438 268.6875 C 665.753906 267.449219 664.648438 268.246094 666.109375 268.289062 C 666.769531 268.289062 667.390625 268.113281 667.875 267.625 C 670.480469 264.933594 670.703125 266.476562 672.070312 265.375 C 673 264.667969 672.160156 264.621094 673.175781 263.960938 C 674.324219 263.210938 673.707031 263.960938 675.074219 263.871094 C 676.179688 263.785156 675.164062 263.914062 676.089844 263.5625 C 681.082031 261.664062 682.097656 261.707031 683.777344 257.246094 C 683.820312 257.113281 683.863281 256.980469 683.910156 256.894531 C 684.21875 256.140625 684.042969 256.097656 684.75 255.480469 C 684.835938 255.390625 684.96875 255.300781 685.058594 255.257812 C 685.101562 255.214844 685.191406 255.171875 685.234375 255.125 C 685.367188 254.992188 685.542969 254.859375 685.675781 254.726562 C 685.941406 254.464844 685.675781 254.773438 686.117188 254.332031 C 686.160156 254.285156 686.339844 254.109375 686.382812 254.023438 C 686.734375 253.578125 686.601562 253.933594 686.78125 253.316406 C 685.410156 253.578125 686.382812 253.535156 685.941406 253.316406 C 685.941406 251.8125 685.410156 251.371094 685.5 250.53125 C 685.542969 249.824219 686.117188 248.898438 686.558594 248.277344 C 687 247.792969 687.488281 247.308594 687.929688 246.867188 C 688.457031 246.070312 688.371094 245.496094 689.5625 245.1875 C 689.386719 247.085938 689.429688 245.9375 690.402344 247.703125 C 691.375 249.472656 690.976562 249.339844 691.816406 249.957031 C 692.167969 248.5 691.949219 249.472656 691.816406 248.015625 C 692.699219 248.191406 692.257812 248.277344 692.917969 248.015625 C 692.257812 247.042969 691.507812 246.910156 691.242188 246.335938 C 690.84375 245.496094 691.507812 245.980469 691.507812 244.082031 C 691.992188 244.082031 692.433594 244.082031 692.917969 244.082031 C 693.273438 245.1875 692.609375 244.214844 693.9375 244.480469 C 694.332031 244.613281 694.730469 244.746094 695.171875 244.921875 C 695.21875 243.730469 695.128906 243.949219 695.746094 243.242188 C 695.394531 242.714844 694.996094 242.273438 695.085938 241.609375 C 695.171875 240.769531 695.703125 240.59375 696.101562 240.195312 C 696.234375 240.0625 696.410156 239.929688 696.542969 239.796875 C 696.585938 239.753906 696.71875 239.621094 696.761719 239.535156 C 696.808594 239.488281 696.851562 239.445312 696.851562 239.402344 C 697.515625 238.5625 697.601562 238.253906 698.53125 238.164062 C 698.972656 237.058594 698.664062 238.296875 698.265625 236.75 C 698.617188 236.484375 698.707031 236.398438 699.105469 236.175781 C 699.238281 236.132812 699.324219 236.042969 699.457031 236 C 700.648438 235.203125 699.8125 235.644531 700.515625 234.234375 C 701.089844 234.71875 701.621094 235.160156 702.195312 235.644531 C 702.285156 234.675781 702.417969 234.628906 702.769531 233.96875 C 700.828125 233.4375 703.125 231.625 703.34375 233.703125 C 704.140625 233.171875 703.699219 233.128906 704.757812 232.863281 C 704.933594 233.261719 705.066406 232.378906 704.757812 233.703125 C 705.683594 232.996094 705.375 232.773438 705.863281 231.757812 C 707.9375 231.804688 706.039062 232.066406 707.894531 232.378906 C 710.324219 232.820312 710.234375 235.335938 712.578125 235.957031 C 712.445312 237.632812 712.046875 236.265625 712.003906 238.207031 C 712.132812 237.988281 712.3125 237.765625 712.445312 237.546875 C 712.488281 237.5 712.53125 237.457031 712.578125 237.414062 C 713.105469 236.882812 713.105469 238.253906 713.152344 236.21875 C 714.609375 236.21875 715.09375 236.398438 716.285156 236.707031 C 717.214844 236.925781 716.152344 236.574219 718.714844 236.792969 C 718.714844 236.308594 718.761719 236.21875 718.628906 235.777344 C 718.40625 235.203125 718.1875 235.160156 717.347656 234.542969 C 717.964844 231.980469 718.582031 233.085938 719.113281 231.582031 C 719.597656 230.167969 718.9375 230.167969 720.351562 229.859375 C 720.660156 229.769531 720.96875 229.640625 721.277344 229.550781 C 720.925781 228.179688 720.703125 229.328125 720.703125 227.296875 C 721.984375 227.210938 721.453125 227.210938 722.027344 226.371094 C 722.648438 225.488281 722.648438 225.488281 722.648438 224.78125 C 723.222656 224.78125 723.398438 224.867188 723.929688 224.648438 C 725.296875 224.117188 724.015625 224.515625 724.855469 223.898438 C 725.078125 223.765625 725.34375 223.632812 725.5625 223.5 C 725.828125 223.367188 726.09375 223.234375 726.269531 223.101562 C 726.710938 223.941406 726.3125 224.074219 727.375 224.207031 C 728.214844 224.117188 729.050781 224.027344 729.890625 223.898438 C 729.9375 223.898438 730.023438 223.851562 730.066406 223.851562 C 730.773438 223.585938 731.4375 223.367188 732.144531 223.101562 C 731.96875 221.027344 731.878906 221.644531 731.570312 220.582031 C 730.246094 220.582031 730.15625 220.9375 729.363281 220.582031 C 729.316406 220.539062 729.230469 220.496094 729.183594 220.496094 C 729.140625 220.453125 729.050781 220.40625 729.007812 220.40625 C 728.257812 220.007812 729.273438 220.320312 728.214844 220.054688 C 728.214844 219.789062 728.214844 219.480469 728.214844 219.214844 C 729.40625 219.082031 728.832031 219.039062 729.007812 218.949219 C 729.539062 218.90625 730.066406 218.859375 730.597656 218.816406 C 731.039062 218.90625 730.730469 218.773438 731.171875 219.039062 C 732.054688 219.613281 732.234375 219.921875 732.410156 220.582031 C 733.203125 220.054688 732.761719 220.007812 733.824219 219.746094 C 733.957031 219.921875 734.484375 220.847656 734.574219 220.9375 C 735.941406 222.484375 737.269531 221.511719 738.285156 221.421875 C 738.285156 221.601562 738.285156 221.777344 738.285156 221.996094 C 739.253906 222.21875 739.828125 222.660156 740.535156 223.101562 C 741.816406 222.75 740.800781 222.660156 742.214844 222.527344 C 742.480469 223.5 742.921875 223.453125 743.628906 223.941406 C 744.6875 223.011719 745.351562 222.96875 747.25 222.527344 C 746.851562 223.632812 747.207031 222.570312 746.410156 223.632812 C 747.164062 223.453125 747.25 223.367188 747.824219 223.058594 C 747.824219 224.472656 747.824219 223.542969 748.089844 223.898438 C 748.621094 223.101562 749.460938 222.703125 750.34375 222.21875 C 750.34375 224.25 750.078125 223.191406 751.269531 223.808594 C 751.625 224.027344 751.976562 224.25 752.285156 224.472656 C 751.667969 225.398438 750.871094 225.707031 750.5625 226.855469 C 750.167969 228.3125 751.136719 226.722656 749.503906 229.195312 C 748.621094 228.886719 749.019531 228.492188 747.558594 229.195312 C 747.339844 230.035156 747.425781 229.640625 746.984375 230.300781 C 748.132812 230.789062 746.941406 230.082031 748.089844 230.566406 C 747.914062 230.917969 747.648438 231.539062 747.515625 231.9375 C 747.472656 231.980469 747.472656 232.066406 747.425781 232.15625 C 747.339844 232.378906 747.25 232.554688 747.164062 232.773438 C 746.941406 233.214844 747.164062 232.863281 746.851562 233.304688 C 746.324219 234.011719 745.617188 235.160156 745 235.382812 C 745.042969 236.925781 744.820312 236.351562 745.96875 236.925781 C 746.367188 237.191406 746.765625 237.414062 747.164062 237.679688 C 747.558594 237.988281 748.179688 238.339844 748.445312 238.605469 C 748.796875 239.003906 749.148438 239.402344 749.503906 239.796875 C 749.59375 239.886719 750.785156 240.683594 750.828125 240.726562 C 751.402344 240.902344 751.976562 241.078125 752.550781 241.257812 C 755.730469 242.535156 756.21875 244.347656 757.585938 244.921875 C 758.914062 245.453125 760.722656 245.320312 761.386719 246.6875 C 761.605469 247.175781 761.386719 246.953125 761.695312 247.484375 C 761.960938 248.015625 762.402344 248.191406 762.933594 248.5 C 763.636719 248.855469 765.050781 249.824219 765.757812 249.914062 C 766.820312 250.046875 768.542969 249.339844 768.9375 248.675781 C 769.292969 248.101562 769.46875 247.128906 770.398438 245.628906 C 771.679688 243.554688 771.324219 241.519531 772.296875 239.402344 C 773.222656 237.414062 772.429688 237.941406 772.382812 235.824219 C 772.339844 235.027344 772.648438 234.808594 772.648438 234.234375 C 772.648438 233.527344 772.5625 231.539062 772.78125 230.082031 C 773.046875 228.402344 773.488281 225 774.417969 223.632812 C 775.125 222.527344 775.386719 221.46875 775.519531 220.273438 C 775.652344 218.597656 777.242188 217.226562 778.347656 219.171875 C 778.570312 219.566406 778.746094 219.964844 778.878906 220.363281 C 779.671875 223.058594 781.21875 226.324219 781.792969 228.578125 C 782.234375 230.300781 781.882812 232.820312 782.457031 234.675781 C 782.941406 236.265625 783.425781 236.21875 784.355469 235.867188 C 786.035156 235.160156 786.429688 235.910156 787.359375 237.058594 C 787.667969 237.457031 788.019531 237.722656 788.332031 237.898438 C 789.613281 238.738281 789.699219 239.84375 789.613281 241.257812 C 789.566406 241.609375 789.566406 241.960938 789.566406 242.316406 C 789.921875 243.730469 789.875 245.054688 790.007812 246.070312 C 790.230469 247.703125 792.878906 248.898438 792.484375 252.519531 C 792.351562 253.800781 791.15625 255.300781 793.101562 255.832031 C 793.101562 258.171875 792.703125 258.570312 795 259.5 C 795.882812 259.765625 795.882812 259.941406 796.503906 260.25 C 797.121094 260.558594 797.652344 260.207031 797.914062 260.78125 C 798.226562 261.441406 798.179688 262.371094 798.710938 262.238281 C 799.417969 262.015625 799.59375 262.765625 800.433594 263.339844 C 801.273438 264.046875 801.140625 264.003906 802.113281 264.445312 C 805.734375 266.035156 801.671875 266.214844 803.304688 267.980469 C 805.734375 270.675781 803.878906 268.246094 805.160156 270.894531 C 805.777344 272.175781 805.46875 275.929688 807.457031 274.738281 C 808.121094 274.339844 807.765625 275.578125 808.695312 275.886719 C 809.886719 276.238281 810.636719 275.578125 810.726562 277.519531 C 810.8125 278.847656 810.105469 279.683594 810.59375 281.1875 C 810.902344 282.113281 812.449219 283.96875 813.332031 284.234375 C 815.011719 284.765625 814.523438 286.398438 815.40625 287.503906 C 816.777344 289.136719 816.46875 289.710938 817.351562 290.640625 C 818.015625 291.347656 818.058594 290.507812 818.058594 292.097656 C 818.058594 293.863281 817.882812 292.628906 818.410156 293.730469 C 819.03125 295.101562 818.808594 293.996094 818.410156 295.410156 C 817.96875 296.957031 818.277344 297.617188 818.101562 299.078125 C 817.703125 302.566406 818.277344 301.195312 818.675781 304.640625 C 818.851562 306.230469 818.765625 307.425781 817.96875 308.660156 C 817.570312 309.324219 817.351562 309.722656 817.085938 310.605469 C 816.554688 312.328125 814.746094 315.023438 814.699219 316.480469 C 814.699219 318.910156 813.066406 320.324219 812.050781 321.78125 C 811.609375 322.441406 811.742188 322.796875 811.476562 323.414062 C 811.433594 323.460938 811.433594 323.546875 811.386719 323.589844 C 810.8125 324.035156 810.195312 324.476562 809.621094 324.917969 C 809.578125 324.960938 809.488281 325.003906 809.445312 325.003906 C 808.914062 325.3125 808.382812 325.625 807.855469 325.933594 C 805.378906 328.628906 806.085938 329.554688 804.410156 330.878906 C 803.570312 331.542969 803.304688 332.46875 802.90625 333.574219 C 802.863281 333.839844 802.820312 334.058594 802.773438 334.324219 C 802.773438 334.371094 802.773438 334.457031 802.773438 334.503906 C 802.6875 335.03125 803.304688 334.546875 802.464844 335.253906 C 801.804688 335.78125 800.652344 335.828125 799.550781 338.875 C 799.0625 340.246094 798.535156 341.570312 798.046875 342.9375 C 797.871094 343.824219 798.3125 344.085938 797.914062 345.058594 C 797.695312 345.324219 797.519531 345.589844 797.296875 345.855469 C 795.664062 347.136719 793.894531 346.472656 791.644531 346.382812 C 788.199219 346.25 787.226562 349.566406 783.957031 349.566406 C 784.3125 350.402344 784 351.289062 783.117188 351.507812 C 783.03125 351.066406 782.941406 350.625 782.632812 350.359375 C 782.324219 350.226562 782.058594 350.140625 781.75 350.007812 C 781.703125 349.960938 781.441406 349.652344 781.351562 349.609375 C 780.910156 349.210938 780.46875 348.8125 780.027344 348.417969 C 780.203125 346.914062 780.027344 348.195312 780.378906 347.398438 C 780.421875 347.269531 780.511719 347.179688 780.554688 347.046875 C 779.453125 347.179688 779.40625 348.0625 778.039062 348.152344 C 777.289062 345.28125 774.285156 349.121094 772.738281 349.253906 C 772.472656 348.636719 770.175781 347.3125 769.644531 347.046875 C 768.9375 346.695312 769.335938 346.914062 768.585938 346.695312 C 768.496094 346.648438 768.453125 346.648438 768.363281 346.605469 C 768.144531 346.515625 767.96875 346.429688 767.746094 346.382812 C 766.863281 346.121094 766.863281 346.429688 766.023438 346.738281 C 765.757812 346.429688 765.492188 346.121094 765.230469 345.855469 C 764.257812 344.707031 762.976562 345.148438 762.09375 344.21875 C 761.695312 343.558594 761.339844 342.9375 760.945312 342.277344 C 760.546875 341.746094 759.972656 341.347656 759.75 340.507812 C 759.796875 340.066406 759.796875 339.582031 759.839844 339.140625 C 759.839844 339.097656 759.882812 339.007812 759.929688 338.964844 C 760.722656 336.445312 758.867188 334.503906 757.101562 333 C 757.058594 332.957031 756.96875 332.957031 756.96875 332.867188 C 756.925781 332.78125 756.878906 332.78125 756.835938 332.734375 C 755.6875 333.042969 755.289062 333.308594 754.054688 333.308594 C 754.230469 331.410156 756.835938 331.367188 755.246094 328.230469 C 755.203125 328.1875 755.15625 328.097656 755.15625 328.054688 C 755.113281 327.921875 755.023438 327.789062 754.980469 327.699219 C 754.9375 327.65625 754.9375 327.566406 754.894531 327.523438 C 754.714844 327.214844 754.539062 326.949219 754.363281 326.640625 C 754.007812 327.742188 753.613281 328.890625 753.257812 329.996094 C 752.640625 331.410156 752.464844 330.527344 751.269531 330.835938 C 750.5625 331.011719 750.386719 331.320312 749.328125 331.410156 C 749.414062 330.21875 749.636719 330.484375 749.902344 329.464844 C 751.445312 329.464844 751.890625 329.820312 751.800781 328.1875 C 751.757812 326.773438 752.152344 325.09375 753.214844 323.8125 C 753.875 323.015625 753.832031 323.148438 753.257812 321.914062 C 753.65625 321.472656 753.523438 321.425781 754.363281 321.339844 C 754.1875 321.074219 754.140625 320.984375 753.921875 320.675781 C 753.433594 320.015625 753.875 320.632812 753.523438 320.234375 C 753.125 321.292969 753.613281 320.277344 752.90625 321.03125 C 752.242188 321.691406 752.152344 322.265625 751.667969 323.148438 C 750.917969 324.609375 748.972656 324.5625 747.957031 325.890625 C 746.410156 327.875 746.101562 328.097656 746.324219 328.9375 C 746.410156 329.289062 746.457031 329.6875 746.542969 330.039062 C 746.058594 329.910156 745.96875 329.820312 745.925781 329.820312 C 745.394531 329.644531 745.882812 329.777344 745.394531 329.6875 C 743.894531 329.335938 744.292969 328.230469 742.613281 328.097656 C 742.832031 327.832031 743.097656 327.613281 743.320312 327.347656 C 743.363281 327.347656 743.453125 327.300781 743.453125 327.300781 C 743.453125 327.300781 743.585938 327.347656 743.585938 327.257812 C 743.585938 327.214844 743.671875 327.257812 743.71875 327.257812 C 743.628906 326.199219 743.40625 325.269531 742.832031 324.5625 C 741.773438 323.28125 741.90625 322.796875 741.332031 322.089844 C 740.625 321.207031 740.050781 321.867188 739.386719 321.25 C 739.167969 320.71875 738.992188 320.191406 738.769531 319.660156 C 738.945312 319.042969 739.257812 319.261719 739.476562 318.644531 C 738.683594 318.246094 738.683594 318.421875 737.796875 318.644531 C 737.929688 317.320312 738.152344 318.113281 737.796875 317.230469 C 736.382812 316.878906 735.546875 317.144531 734.398438 316.4375 C 732.410156 315.242188 733.292969 315.949219 731.660156 316.390625 C 730.730469 315.773438 728.257812 313.785156 727.019531 314.007812 C 725.738281 314.226562 725.5625 314.402344 723.796875 314.449219 C 718.671875 314.449219 719.023438 315.421875 715.710938 316.746094 C 713.988281 317.40625 712.355469 318.378906 710.367188 318.378906 C 705.289062 318.46875 707.011719 318.910156 702.59375 321.515625 C 701.488281 322.132812 701.046875 321.78125 700.339844 322.621094 C 699.941406 323.105469 699.941406 323.460938 699.8125 324.035156 C 698.925781 327.832031 696.851562 326.992188 695.660156 326.949219 C 693.890625 326.90625 693.539062 327.257812 693.316406 327.875 C 691.550781 327.742188 693.273438 327.964844 692.300781 327.480469 C 692.257812 327.480469 692.214844 327.390625 692.167969 327.390625 C 692.035156 327.347656 691.902344 327.300781 691.773438 327.300781 C 690.753906 327.300781 692.035156 327.390625 691.019531 327.480469 C 690.667969 327.523438 690.625 327.433594 690.359375 327.433594 C 689.296875 327.613281 688.238281 327.742188 687.175781 327.921875 C 685.71875 328.40625 683.511719 328.363281 683.113281 329.910156 C 683.113281 329.996094 683.070312 330.4375 683.070312 330.4375 C 682.804688 331.410156 681.789062 331.320312 681.125 331.410156 C 680.859375 331.585938 680.597656 331.71875 680.285156 331.894531 C 680.242188 331.941406 680.066406 332.117188 680.023438 332.207031 C 679.890625 332.335938 679.757812 332.515625 679.625 332.648438 C 679.582031 332.691406 679.535156 332.734375 679.492188 332.78125 C 679.09375 333.265625 678.875 333.929688 677.859375 334.503906 C 676.796875 335.121094 674.765625 334.855469 673.574219 335.078125 C 669.6875 335.738281 668.890625 332.78125 666.550781 332.867188 C 664.738281 332.910156 664.78125 331.058594 664.78125 329.023438 C 665.445312 329.15625 665.621094 329.289062 666.460938 329.289062 C 666.683594 328.316406 667.125 327.789062 666.859375 326.683594 C 666.550781 325.492188 666.195312 325.667969 666.371094 324.429688 C 666.371094 323.722656 666.328125 323.015625 666.328125 322.3125 C 665.976562 318.777344 662.398438 317.539062 661.46875 311.578125 C 661.292969 310.382812 661.160156 309.941406 660.5 309.191406 C 660.1875 308.839844 659.925781 308.660156 659.660156 308.351562 C 659.085938 307.644531 659.527344 308.21875 659.171875 307.425781 C 658.597656 306.144531 657.007812 305.304688 656.699219 303.757812 C 655.992188 300.269531 653.164062 299.210938 651.355469 296.515625 C 652.195312 296.160156 651.796875 297.132812 651.929688 295.675781 C 652.769531 295.894531 652.371094 295.808594 653.03125 296.25 C 652.855469 294.304688 652.195312 296.027344 652.195312 293.46875 C 653.871094 293.910156 654.886719 295.410156 655.285156 297.089844 C 655.460938 297.089844 655.640625 297.089844 655.859375 297.089844 C 655.859375 293.777344 655.417969 294.527344 654.3125 293.070312 C 654.003906 292.628906 653.960938 292.496094 653.605469 292.097656 C 653.5625 292.054688 653.519531 292.007812 653.476562 291.964844 C 652.238281 290.550781 652.8125 290.550781 652.015625 289.535156 C 651.265625 288.519531 651.089844 288.742188 651.046875 288.078125 " fill-opacity="1" fill-rule="evenodd"/></g><path fill="#ffffff" d="M 775.253906 359.148438 C 775.253906 360.386719 775.609375 361.625 776.050781 362.550781 C 776.402344 363.300781 776.582031 363.035156 776.582031 364.140625 C 776.535156 366.171875 776.316406 366.746094 777.15625 368.425781 C 777.597656 369.351562 778.523438 370.371094 778.613281 371.472656 C 780.601562 371.472656 780.292969 371.386719 780.554688 372.046875 C 782.410156 372.003906 781.21875 371.648438 782.234375 371.472656 C 782.277344 371.472656 784.132812 371.914062 783.605469 369.53125 C 785.015625 369.882812 784.355469 370.632812 785.238281 370.546875 C 785.988281 370.457031 785.636719 369.839844 785.722656 369 C 785.8125 367.984375 785.371094 368.734375 786.695312 368.117188 L 786.429688 366.4375 C 786.429688 364.496094 786.871094 366.4375 787.535156 366.703125 L 788.375 360.785156 C 788.464844 360.34375 788.949219 360.5625 787.84375 358.886719 C 786.5625 359.015625 787.3125 359.0625 787.003906 359.148438 L 783.292969 359.679688 C 782.5 359.855469 781.925781 360.164062 781.441406 360.121094 C 779.980469 360.035156 779.230469 358.3125 777.199219 357.914062 C 776.714844 357.824219 777.199219 358 776.492188 357.691406 C 775.519531 357.25 776.714844 357.558594 775.519531 357.25 C 775.519531 358.488281 775.253906 358.132812 775.253906 359.148438 M 784.222656 368.691406 L 784.3125 368.777344 C 784.3125 368.777344 784.179688 368.691406 784.222656 368.691406 Z M 784.222656 368.691406 " fill-opacity="1" fill-rule="evenodd"/><g fill="#c1ff72" fill-opacity="1"><g transform="translate(98.459079, 331.677368)"><g><path d="M 43.90625 0.953125 C 32.726562 0.953125 23.546875 -1.703125 16.359375 -7.015625 C 9.179688 -12.335938 5.316406 -19.953125 4.765625 -29.859375 L 33.265625 -29.859375 C 33.546875 -26.492188 34.546875 -24.039062 36.265625 -22.5 C 37.992188 -20.957031 40.222656 -20.1875 42.953125 -20.1875 C 45.410156 -20.1875 47.429688 -20.796875 49.015625 -22.015625 C 50.609375 -23.242188 51.40625 -24.953125 51.40625 -27.140625 C 51.40625 -29.953125 50.085938 -32.128906 47.453125 -33.671875 C 44.816406 -35.222656 40.546875 -36.953125 34.640625 -38.859375 C 28.359375 -40.953125 23.285156 -42.972656 19.421875 -44.921875 C 15.566406 -46.878906 12.207031 -49.742188 9.34375 -53.515625 C 6.476562 -57.296875 5.046875 -62.226562 5.046875 -68.3125 C 5.046875 -74.5 6.585938 -79.796875 9.671875 -84.203125 C 12.765625 -88.609375 17.039062 -91.945312 22.5 -94.21875 C 27.957031 -96.5 34.140625 -97.640625 41.046875 -97.640625 C 52.222656 -97.640625 61.148438 -95.023438 67.828125 -89.796875 C 74.515625 -84.566406 78.085938 -77.222656 78.546875 -67.765625 L 49.5 -67.765625 C 49.40625 -70.679688 48.515625 -72.863281 46.828125 -74.3125 C 45.148438 -75.769531 42.992188 -76.5 40.359375 -76.5 C 38.359375 -76.5 36.722656 -75.90625 35.453125 -74.71875 C 34.179688 -73.539062 33.546875 -71.859375 33.546875 -69.671875 C 33.546875 -67.859375 34.25 -66.289062 35.65625 -64.96875 C 37.0625 -63.65625 38.8125 -62.519531 40.90625 -61.5625 C 43 -60.613281 46.09375 -59.410156 50.1875 -57.953125 C 56.269531 -55.859375 61.285156 -53.789062 65.234375 -51.75 C 69.191406 -49.707031 72.601562 -46.84375 75.46875 -43.15625 C 78.332031 -39.476562 79.765625 -34.820312 79.765625 -29.1875 C 79.765625 -23.457031 78.332031 -18.316406 75.46875 -13.765625 C 72.601562 -9.222656 68.46875 -5.632812 63.0625 -3 C 57.65625 -0.363281 51.269531 0.953125 43.90625 0.953125 Z M 43.90625 0.953125 "/></g></g></g><g fill="#c1ff72" fill-opacity="1"><g transform="translate(182.996324, 331.677368)"><g><path d="M 68.453125 -15.6875 L 34.359375 -15.6875 L 29.1875 0 L 1.09375 0 L 36.140625 -96.140625 L 66.953125 -96.140625 L 101.859375 0 L 73.640625 0 Z M 61.765625 -36.140625 L 51.40625 -67.21875 L 41.1875 -36.140625 Z M 61.765625 -36.140625 "/></g></g></g><g fill="#c1ff72" fill-opacity="1"><g transform="translate(285.94088, 331.677368)"><g><path d="M 119.859375 -96.140625 L 119.859375 0 L 93.140625 0 L 93.140625 -53.046875 L 75 0 L 52.640625 0 L 34.359375 -53.453125 L 34.359375 0 L 7.640625 0 L 7.640625 -96.140625 L 39.953125 -96.140625 L 64.09375 -33.6875 L 87.671875 -96.140625 Z M 119.859375 -96.140625 "/></g></g></g><g fill="#c1ff72" fill-opacity="1"><g transform="translate(413.428517, 331.677368)"><g><path d="M 119.859375 -96.140625 L 119.859375 0 L 93.140625 0 L 93.140625 -53.046875 L 75 0 L 52.640625 0 L 34.359375 -53.453125 L 34.359375 0 L 7.640625 0 L 7.640625 -96.140625 L 39.953125 -96.140625 L 64.09375 -33.6875 L 87.671875 -96.140625 Z M 119.859375 -96.140625 "/></g></g></g><g fill="#c1ff72" fill-opacity="1"><g transform="translate(540.916132, 331.677368)"><g><path d="M 95.046875 -96.140625 L 61.21875 -30.546875 L 61.21875 0 L 34.359375 0 L 34.359375 -30.546875 L 0.546875 -96.140625 L 31.09375 -96.140625 L 48 -59.046875 L 64.90625 -96.140625 Z M 95.046875 -96.140625 "/></g></g></g><g fill="#ffffff" fill-opacity="1"><g transform="translate(288.439952, 384.451845)"><g><path d="M 15.140625 0 L 9.484375 -9.71875 L 5.734375 -9.71875 L 5.734375 0 L 2.625 0 L 2.625 -23.765625 L 10.296875 -23.765625 C 12.085938 -23.765625 13.601562 -23.457031 14.84375 -22.84375 C 16.082031 -22.226562 17.007812 -21.394531 17.625 -20.34375 C 18.238281 -19.300781 18.546875 -18.113281 18.546875 -16.78125 C 18.546875 -15.132812 18.070312 -13.6875 17.125 -12.4375 C 16.1875 -11.1875 14.773438 -10.359375 12.890625 -9.953125 L 18.859375 0 Z M 5.734375 -12.203125 L 10.296875 -12.203125 C 11.972656 -12.203125 13.234375 -12.613281 14.078125 -13.4375 C 14.921875 -14.269531 15.34375 -15.382812 15.34375 -16.78125 C 15.34375 -18.1875 14.925781 -19.273438 14.09375 -20.046875 C 13.269531 -20.816406 12.003906 -21.203125 10.296875 -21.203125 L 5.734375 -21.203125 Z M 5.734375 -12.203125 "/></g></g></g><g fill="#ffffff" fill-opacity="1"><g transform="translate(320.276569, 384.451845)"><g><path d="M 13.40625 0.234375 C 11.195312 0.234375 9.179688 -0.28125 7.359375 -1.3125 C 5.546875 -2.34375 4.109375 -3.785156 3.046875 -5.640625 C 1.992188 -7.492188 1.46875 -9.582031 1.46875 -11.90625 C 1.46875 -14.21875 1.992188 -16.300781 3.046875 -18.15625 C 4.109375 -20.007812 5.546875 -21.453125 7.359375 -22.484375 C 9.179688 -23.515625 11.195312 -24.03125 13.40625 -24.03125 C 15.625 -24.03125 17.640625 -23.515625 19.453125 -22.484375 C 21.273438 -21.453125 22.707031 -20.015625 23.75 -18.171875 C 24.800781 -16.328125 25.328125 -14.238281 25.328125 -11.90625 C 25.328125 -9.5625 24.800781 -7.46875 23.75 -5.625 C 22.707031 -3.78125 21.273438 -2.34375 19.453125 -1.3125 C 17.640625 -0.28125 15.625 0.234375 13.40625 0.234375 Z M 13.40625 -2.453125 C 15.0625 -2.453125 16.550781 -2.835938 17.875 -3.609375 C 19.207031 -4.378906 20.253906 -5.476562 21.015625 -6.90625 C 21.773438 -8.34375 22.15625 -10.007812 22.15625 -11.90625 C 22.15625 -13.8125 21.773438 -15.472656 21.015625 -16.890625 C 20.253906 -18.316406 19.210938 -19.414062 17.890625 -20.1875 C 16.578125 -20.957031 15.082031 -21.34375 13.40625 -21.34375 C 11.71875 -21.34375 10.210938 -20.957031 8.890625 -20.1875 C 7.578125 -19.414062 6.539062 -18.316406 5.78125 -16.890625 C 5.019531 -15.472656 4.640625 -13.8125 4.640625 -11.90625 C 4.640625 -10.007812 5.019531 -8.34375 5.78125 -6.90625 C 6.539062 -5.476562 7.582031 -4.378906 8.90625 -3.609375 C 10.238281 -2.835938 11.738281 -2.453125 13.40625 -2.453125 Z M 13.40625 -2.453125 "/></g></g></g><g fill="#ffffff" fill-opacity="1"><g transform="translate(358.180235, 384.451845)"><g><path d="M 14.53125 -12.234375 C 15.382812 -12.097656 16.171875 -11.742188 16.890625 -11.171875 C 17.609375 -10.609375 18.175781 -9.90625 18.59375 -9.0625 C 19.019531 -8.226562 19.234375 -7.332031 19.234375 -6.375 C 19.234375 -5.164062 18.925781 -4.078125 18.3125 -3.109375 C 17.695312 -2.148438 16.800781 -1.390625 15.625 -0.828125 C 14.457031 -0.273438 13.078125 0 11.484375 0 L 2.625 0 L 2.625 -23.765625 L 11.15625 -23.765625 C 12.757812 -23.765625 14.128906 -23.492188 15.265625 -22.953125 C 16.410156 -22.421875 17.265625 -21.703125 17.828125 -20.796875 C 18.398438 -19.890625 18.6875 -18.867188 18.6875 -17.734375 C 18.6875 -16.316406 18.304688 -15.148438 17.546875 -14.234375 C 16.785156 -13.316406 15.78125 -12.648438 14.53125 -12.234375 Z M 5.734375 -13.5 L 10.9375 -13.5 C 12.394531 -13.5 13.519531 -13.835938 14.3125 -14.515625 C 15.113281 -15.203125 15.515625 -16.148438 15.515625 -17.359375 C 15.515625 -18.554688 15.113281 -19.492188 14.3125 -20.171875 C 13.519531 -20.859375 12.375 -21.203125 10.875 -21.203125 L 5.734375 -21.203125 Z M 11.21875 -2.5625 C 12.757812 -2.5625 13.960938 -2.921875 14.828125 -3.640625 C 15.691406 -4.367188 16.125 -5.382812 16.125 -6.6875 C 16.125 -8 15.671875 -9.035156 14.765625 -9.796875 C 13.859375 -10.554688 12.640625 -10.9375 11.109375 -10.9375 L 5.734375 -10.9375 L 5.734375 -2.5625 Z M 11.21875 -2.5625 "/></g></g></g><g fill="#ffffff" fill-opacity="1"><g transform="translate(390.187272, 384.451845)"><g><path d="M 13.40625 0.234375 C 11.195312 0.234375 9.179688 -0.28125 7.359375 -1.3125 C 5.546875 -2.34375 4.109375 -3.785156 3.046875 -5.640625 C 1.992188 -7.492188 1.46875 -9.582031 1.46875 -11.90625 C 1.46875 -14.21875 1.992188 -16.300781 3.046875 -18.15625 C 4.109375 -20.007812 5.546875 -21.453125 7.359375 -22.484375 C 9.179688 -23.515625 11.195312 -24.03125 13.40625 -24.03125 C 15.625 -24.03125 17.640625 -23.515625 19.453125 -22.484375 C 21.273438 -21.453125 22.707031 -20.015625 23.75 -18.171875 C 24.800781 -16.328125 25.328125 -14.238281 25.328125 -11.90625 C 25.328125 -9.5625 24.800781 -7.46875 23.75 -5.625 C 22.707031 -3.78125 21.273438 -2.34375 19.453125 -1.3125 C 17.640625 -0.28125 15.625 0.234375 13.40625 0.234375 Z M 13.40625 -2.453125 C 15.0625 -2.453125 16.550781 -2.835938 17.875 -3.609375 C 19.207031 -4.378906 20.253906 -5.476562 21.015625 -6.90625 C 21.773438 -8.34375 22.15625 -10.007812 22.15625 -11.90625 C 22.15625 -13.8125 21.773438 -15.472656 21.015625 -16.890625 C 20.253906 -18.316406 19.210938 -19.414062 17.890625 -20.1875 C 16.578125 -20.957031 15.082031 -21.34375 13.40625 -21.34375 C 11.71875 -21.34375 10.210938 -20.957031 8.890625 -20.1875 C 7.578125 -19.414062 6.539062 -18.316406 5.78125 -16.890625 C 5.019531 -15.472656 4.640625 -13.8125 4.640625 -11.90625 C 4.640625 -10.007812 5.019531 -8.34375 5.78125 -6.90625 C 6.539062 -5.476562 7.582031 -4.378906 8.90625 -3.609375 C 10.238281 -2.835938 11.738281 -2.453125 13.40625 -2.453125 Z M 13.40625 -2.453125 "/></g></g></g><g fill="#ffffff" fill-opacity="1"><g transform="translate(428.090938, 384.451845)"><g><path d="M 17.25 -23.765625 L 17.25 -21.234375 L 10.78125 -21.234375 L 10.78125 0 L 7.671875 0 L 7.671875 -21.234375 L 1.15625 -21.234375 L 1.15625 -23.765625 Z M 17.25 -23.765625 "/></g></g></g></svg>